<svg width="137" height="30" fill="none" xmlns="http://www.w3.org/2000/svg"><path fill-rule="evenodd" clip-rule="evenodd" d="M23.024.779a.778.778 0 00-.98-.752L18.28 1.034a.778.778 0 00-.577.752v2.12a.778.778 0 00.98.751l3.762-1.007a.779.779 0 00.578-.752V.778zM73.09.384l-.094-.109a.81.81 0 00-.652-.224l-3.668.397-.133.026a.81.81 0 00-.589.778v22.553l.013.146a.81.81 0 00.797.663h3.609l.145-.013a.81.81 0 00.664-.797l-.029-15.356 10.6 15.808.101.123a.81.81 0 00.57.235h2.697l.146-.013a.81.81 0 00.664-.796V1.258l-.012-.136a.81.81 0 00-.716-.67l-3.576-.36-.147-.003a.81.81 0 00-.741.725L82.736.9l.057 13.035L73.09.384zM50.612 5.468l.051.137.68 2.48c1.63-1.304 3.721-2.518 5.936-2.518 4.457 0 7.285 2.644 7.438 7.445l.007.417V23.81a.81.81 0 01-.664.796l-.146.013h-3.672a.81.81 0 01-.796-.663l-.013-.146V13.43c0-2.3-1.261-3.295-3.63-3.295-1.321 0-2.749.91-3.609 1.84l-.175.2V23.81a.81.81 0 01-.664.796l-.146.013h-3.672a.81.81 0 01-.796-.663l-.013-.146V6.458a.81.81 0 01.47-.734l.126-.046 2.345-.64a.81.81 0 01.871.308l.072.122zm58.629 9.815c0-6.436-2.768-9.716-9.295-9.716-6.498 0-9.325 3.28-9.325 9.716 0 6.437 2.827 9.655 9.325 9.655 6.527 0 9.295-3.218 9.295-9.655zM34.079 5.648c1.632 0 3.438.199 4.926.865.126.056.383.198.627.423.046.043.893-.172 2.54-.645a.81.81 0 01.945.408l.054.134.578 1.908a.81.81 0 01-.434.941l-.137.05-1.192.322c.102.627.153 1.116.153 1.467 0 3.505-2.154 5.78-8.03 5.78a17.26 17.26 0 01-2.83-.215c-.46.215-.707.523-.707.892 0 .422.336.69 1.127.803l.227.027 5.29.215c5.077.215 6.83 1.968 6.83 4.766 0 3.813-2.8 6.211-9.782 6.211-6.122 0-8.553-2.214-8.553-5.073 0-1.138.523-2.183 1.508-2.952-.83-.646-1.415-1.568-1.415-2.798 0-1.26.738-2.49 2.492-3.29-1.416-.861-2.277-2.245-2.277-4.366 0-3.352 2.154-5.873 8.06-5.873zm-3.107 17.341c-.554.4-.8.923-.8 1.353 0 1.206 1.014 1.821 3.605 1.873l.364.003c4.245.03 5.26-.646 5.26-1.66 0-.727-.458-1.123-2.436-1.282l-.64-.04-5.353-.247zM8.029 5.616c1.684 0 3.368.244 4.92.689l.486.151a.814.814 0 01.548.891l-.035.142-.835 2.418a.707.707 0 01-.704.476l-.133-.02-.332-.078c-1.456-.325-3-.488-4.13-.488-1.754 0-2.738.554-2.738 1.445 0 1.043 1.51 1.394 3.354 1.823 2.884.67 6.582 1.53 6.582 5.526 0 3.628-2.307 6.334-8.06 6.334-2.22 0-4.185-.317-5.862-.987l-.33-.141a.81.81 0 01-.466-.868l.034-.133.847-2.462a.64.64 0 01.7-.405l.125.034.557.194a15.4 15.4 0 004.488.71c2.122 0 3.014-.77 3.014-1.753 0-1.096-1.54-1.465-3.416-1.915C3.726 16.499 0 15.605 0 11.489c0-3.506 2.584-5.873 8.03-5.873zM23.02 7.148a.777.777 0 00-.98-.752l-3.765 1.007a.779.779 0 00-.578.752v15.692c0 .43.349.778.779.778h3.766c.43 0 .778-.348.778-.778v-16.7zm87.904-1.553l3.894 1.022a.81.81 0 01.59.634l2.14 11.402.224 1.55.301-1.56 2.253-10.437a.81.81 0 01.804-.639l5.064.076a.81.81 0 01.78.642l2.197 10.365.237 1.517.259-1.521 2.214-11.178a.808.808 0 01.675-.643l3.515-.522a.81.81 0 01.906.993l-4.09 16.7a.81.81 0 01-.787.618h-5.2a.81.81 0 01-.79-.631l-2.198-9.72-.235-1.635-.349 1.651-2.443 9.723a.81.81 0 01-.785.612h-5.181a.809.809 0 01-.787-.62l-4.201-17.427a.81.81 0 01.993-.972zm-15.116 9.657c0-4.137 1.137-5.486 4.138-5.486 2.972 0 4.05 1.349 4.05 5.486 0 4.138-1.078 5.518-4.05 5.518-3.001 0-4.138-1.35-4.138-5.518zM34.14 9.461c-2.153 0-2.891.676-2.891 2.183 0 1.722 1.107 2.152 2.768 2.152 2.37 0 3.015-.615 3.015-2.152 0-1.569-.8-2.183-2.891-2.183z" fill="#0777CF"/></svg>