<svg width="137" height="30" viewBox="0 0 137 30" fill="none" xmlns="http://www.w3.org/2000/svg">
<path fill-rule="evenodd" clip-rule="evenodd" d="M23.0237 0.778594C23.0237 0.710599 23.0148 0.642898 22.9972 0.577218C22.886 0.161954 22.459 -0.0845241 22.0435 0.0266926L18.281 1.03385C17.9405 1.125 17.7037 1.43341 17.7037 1.78575V3.90534C17.7037 3.97334 17.7126 4.04104 17.7302 4.10672C17.8415 4.52198 18.2685 4.76846 18.684 4.65724L22.4464 3.65009C22.787 3.55894 23.0237 3.25053 23.0237 2.89819V0.778594ZM73.0899 0.384418L72.9958 0.275074C72.8247 0.108871 72.5865 0.0247321 72.3444 0.0509404L68.6764 0.448053L68.5434 0.473757C68.2001 0.57043 67.954 0.885248 67.954 1.2525V23.8052L67.9671 23.9506C68.0356 24.3281 68.3662 24.6143 68.7636 24.6143H72.3727L72.5182 24.6013C72.8959 24.5328 73.1822 24.2023 73.1822 23.8044L73.153 8.44754L83.7524 24.2556L83.8542 24.379C84.0043 24.5282 84.209 24.6143 84.4249 24.6143H87.1211L87.2666 24.6013C87.6442 24.5328 87.9306 24.2024 87.9306 23.8052V1.25761L87.9193 1.12199C87.8595 0.768767 87.5701 0.48977 87.2026 0.452575L83.6267 0.0906332L83.4807 0.0889493C83.098 0.119082 82.7798 0.418934 82.7397 0.81414L82.7356 0.899235L82.7932 13.9336L73.0899 0.384418ZM50.6125 5.46807L50.6635 5.60489L51.3421 8.0858C52.9726 6.78058 55.0644 5.56696 57.2794 5.56696C61.7358 5.56696 64.5638 8.21063 64.7174 13.0125L64.724 13.4293V23.81C64.724 24.2072 64.4377 24.5376 64.06 24.6061L63.9145 24.6192H60.2424C59.8449 24.6192 59.5144 24.3329 59.4458 23.9555L59.4328 23.81V13.4293C59.4328 11.1297 58.1715 10.1352 55.8028 10.1352C54.482 10.1352 53.054 11.0457 52.1942 11.9756L52.0189 12.1748V23.81C52.0189 24.2072 51.7325 24.5376 51.3549 24.6061L51.2094 24.6192H47.5372C47.1398 24.6192 46.8092 24.3329 46.7407 23.9555L46.7277 23.81V6.45836C46.7277 6.13918 46.9146 5.85454 47.1972 5.72398L47.3239 5.6778L49.669 5.03759C50.0045 4.94618 50.3483 5.07946 50.5401 5.34597L50.6125 5.46807ZM109.241 15.2831C109.241 8.84656 106.473 5.56697 99.946 5.56697C93.448 5.56697 90.6215 8.84656 90.6215 15.2831C90.6215 21.7197 93.448 24.938 99.946 24.938C106.473 24.938 109.241 21.7197 109.241 15.2831ZM34.079 5.64787C35.7108 5.64787 37.5167 5.8467 39.0049 6.51251C39.1306 6.56877 39.3878 6.7106 39.6316 6.93603C39.6783 6.97916 40.5252 6.76403 42.1724 6.29064C42.5505 6.18199 42.9438 6.36094 43.1168 6.69932L43.1709 6.83344L43.7493 8.741C43.8527 9.12455 43.6621 9.51801 43.3153 9.68236L43.1782 9.73279L41.9859 10.0539C42.0879 10.681 42.1389 11.1699 42.1389 11.5207C42.1389 15.0259 39.9855 17.3012 34.1098 17.3012C33.1561 17.3012 32.2025 17.2397 31.2796 17.086C30.8181 17.3012 30.572 17.6087 30.572 17.9777C30.572 18.4004 30.9081 18.6682 31.6986 18.7809L31.9256 18.8079L37.2168 19.0231C42.2928 19.2383 44.0463 20.9909 44.0463 23.789C44.0463 27.6017 41.2468 30 34.2636 30C28.1417 30 25.7114 27.7862 25.7114 24.9266C25.7114 23.789 26.2344 22.7435 27.2188 21.9749C26.3882 21.3292 25.8037 20.4067 25.8037 19.1768C25.8037 17.9162 26.542 16.6863 28.2955 15.8868C26.8804 15.0259 26.0191 13.6423 26.0191 11.5207C26.0191 8.16917 28.1725 5.64787 34.079 5.64787ZM30.972 22.9895C30.4183 23.3893 30.1722 23.912 30.1722 24.3424C30.1722 25.5483 31.1855 26.1633 33.7773 26.2146L34.1406 26.218C38.3859 26.2488 39.4011 25.5723 39.4011 24.5577C39.4011 23.8309 38.9435 23.4345 36.965 23.276L36.3248 23.2355L30.972 22.9895ZM8.02917 5.61551C9.71323 5.61551 11.3973 5.85997 12.9489 6.30478L13.4353 6.45611C13.8212 6.58908 14.0414 6.96778 13.9831 7.34699L13.948 7.48874L13.1131 9.90739C13.0088 10.2095 12.718 10.3986 12.4091 10.3829L12.2761 10.3633L11.9436 10.2846C10.4878 9.95967 8.94392 9.79718 7.81383 9.79718C6.06033 9.79718 5.07591 10.3506 5.07591 11.2423C5.07591 12.2853 6.58655 12.6365 8.4298 13.0651C11.3139 13.7356 15.0124 14.5954 15.0124 18.591C15.0124 22.2192 12.7052 24.925 6.95246 24.925C4.73284 24.925 2.76712 24.6078 1.0904 23.9383L0.760226 23.7966C0.421521 23.6439 0.235769 23.2843 0.294047 22.9288L0.327517 22.7961L1.17483 20.3339C1.28436 20.045 1.5808 19.8816 1.87452 19.9291L1.99968 19.9626L2.55698 20.1574C4.06654 20.6438 5.7412 20.8663 7.04475 20.8663C9.1674 20.8663 10.0595 20.0976 10.0595 19.1137C10.0595 18.0185 8.51838 17.6488 6.64253 17.1987C3.72585 16.499 0 15.6051 0 11.4883C0 7.98307 2.5841 5.61551 8.02917 5.61551ZM23.0205 7.1475C23.0205 7.07954 23.0116 7.01188 22.994 6.94624C22.8828 6.53096 22.4558 6.28441 22.0403 6.39556L18.2745 7.40298C17.934 7.49409 17.6971 7.80253 17.6971 8.15491V23.847C17.6971 24.2769 18.0458 24.6254 18.4759 24.6254H22.2417C22.6718 24.6254 23.0205 24.2769 23.0205 23.847V7.1475ZM110.924 5.59491L114.818 6.61747C115.121 6.69693 115.35 6.94353 115.408 7.25087L117.548 18.6525L117.772 20.2029L118.073 18.6421L120.326 8.20578C120.408 7.82881 120.744 7.56166 121.13 7.56744L126.194 7.6434C126.572 7.64906 126.896 7.91525 126.974 8.28474L129.171 18.6497L129.408 20.1673L129.667 18.6456L131.881 7.46789C131.947 7.13237 132.217 6.87485 132.556 6.82464L136.071 6.30316C136.514 6.23755 136.925 6.54271 136.991 6.98475C137.006 7.08843 137.001 7.1941 136.977 7.29591L132.887 23.9968C132.798 24.3589 132.473 24.6136 132.1 24.6136H126.9C126.522 24.6136 126.194 24.3517 126.11 23.9829L123.912 14.2634L123.677 12.6276L123.328 14.2793L120.885 24.0015C120.795 24.3613 120.471 24.6136 120.1 24.6136H114.919C114.545 24.6136 114.219 24.3575 114.132 23.994L109.931 6.56703C109.826 6.13258 110.094 5.69554 110.528 5.59086C110.658 5.55954 110.794 5.56093 110.924 5.59491ZM95.8082 15.2525C95.8082 11.1147 96.9446 9.76606 99.9459 9.76606C102.918 9.76606 103.996 11.1147 103.996 15.2525C103.996 19.3903 102.918 20.7695 99.9459 20.7695C96.9446 20.7695 95.8082 19.4209 95.8082 15.2525ZM34.1405 9.4606C31.9871 9.4606 31.2488 10.137 31.2488 11.6437C31.2488 13.3655 32.3563 13.796 34.0175 13.796C36.3862 13.796 37.0322 13.1811 37.0322 11.6437C37.0322 10.0755 36.2324 9.4606 34.1405 9.4606Z" fill="#0777CF"/>
</svg>
